<?xml version="1.0" encoding="utf-8"?>
<!-- Generator: Adobe Illustrator 15.1.0, SVG Export Plug-In . SVG Version: 6.00 Build 0)  -->
<!DOCTYPE svg PUBLIC "-//W3C//DTD SVG 1.1//EN" "http://www.w3.org/Graphics/SVG/1.1/DTD/svg11.dtd">
<svg version="1.1" id="Layer_1" xmlns="http://www.w3.org/2000/svg" xmlns:xlink="http://www.w3.org/1999/xlink" x="0px" y="0px"
	 width="256px" height="256px" viewBox="0 0 256 256" enable-background="new 0 0 256 256" xml:space="preserve">
<g id="Layer_2">
</g>
<g id="Layer_1_1_">
	<g>
		<circle fill="#D92451" cx="48" cy="16" r="16"/>
		<g>
			<polygon points="41.939,8 41.939,23.888 57.828,15.943 			"/>
		</g>
	</g>
	<g>
		<circle fill="#AE4C9D" cx="112" cy="16" r="16"/>
		<g>
			<g>
				<polygon points="108.862,8.056 114.904,16 108.862,23.943 124.751,15.999 				"/>
			</g>
			<g>
				<polygon points="103.494,8.056 109.536,16 103.494,23.943 119.383,15.999 				"/>
			</g>
		</g>
	</g>
	<g>
		<circle fill="#D85227" cx="16" cy="16" r="16"/>
		<g>
			<g>
				<polygon points="19.751,8.056 13.793,16 19.751,23.943 4.081,15.999 				"/>
			</g>
			<g>
				<polygon points="25.046,8.056 19.087,16 25.046,23.943 9.375,15.999 				"/>
			</g>
		</g>
	</g>
	<g>
		<circle fill="#D9AEB8" cx="80" cy="16" r="16"/>
		<g>
			<rect x="74.442" y="7.959" width="4.891" height="15.942"/>
			<rect x="81.109" y="7.986" width="4.891" height="15.942"/>
		</g>
	</g>
	<g>
		<circle cx="48" cy="48" r="16"/>
		<g>
			<polygon fill="#D92451" points="41.939,40.001 41.939,55.889 57.828,47.944 			"/>
		</g>
	</g>
	<g>
		<circle cx="112" cy="48" r="16"/>
		<g>
			<g>
				<polygon fill="#AE4C9D" points="108.862,40.056 114.904,48 108.862,55.943 124.751,47.999 				"/>
			</g>
			<g>
				<polygon fill="#AE4C9D" points="103.494,40.056 109.536,48 103.494,55.943 119.383,47.999 				"/>
			</g>
		</g>
	</g>
	<g>
		<circle cx="16" cy="48" r="16"/>
		<g>
			<g>
				<polygon fill="#D85227" points="19.751,40.056 13.793,48 19.751,55.943 4.081,47.999 				"/>
			</g>
			<g>
				<polygon fill="#D85227" points="25.046,40.056 19.087,48 25.046,55.943 9.375,47.999 				"/>
			</g>
		</g>
	</g>
	<g>
		<circle cx="80" cy="48" r="16"/>
		<g>
			<rect x="74.442" y="39.959" fill="#D9AEB8" width="4.891" height="15.942"/>
			<rect x="81.109" y="39.986" fill="#D9AEB8" width="4.891" height="15.942"/>
		</g>
	</g>
	<g>
		<path d="M144,0c-8.837,0-16,7.163-16,16s7.163,16,16,16h16V0H144z"/>
	</g>
	<g>
		<path d="M176.004,0c8.837,0,16,7.163,16,16s-7.163,16-16,16h-16V0H176.004z"/>
	</g>
	<g>
		<path fill="#D92451" d="M144,31.93c-8.837,0-16,7.163-16,16c0,8.837,7.163,16,16,16h16v-32H144z"/>
	</g>
	<g>
		<path fill="#D92451" d="M176.004,31.93c8.837,0,16,7.163,16,16c0,8.837-7.163,16-16,16h-16v-32H176.004z"/>
	</g>
	<polygon fill="#D92451" points="183.973,13.735 178.445,13.735 178.445,8.209 173.555,8.209 173.555,13.735 168.027,13.735 
		168.027,18.626 173.555,18.626 173.555,24.151 178.445,24.151 178.445,18.626 183.973,18.626 	"/>
	<rect x="136.027" y="13.555" fill="#D92451" width="15.943" height="4.891"/>
	<polygon points="183.973,45.555 178.445,45.555 178.445,40.029 173.555,40.029 173.555,45.555 168.027,45.555 168.027,50.446 
		173.555,50.446 173.555,55.971 178.445,55.971 178.445,50.446 183.973,50.446 	"/>
	<rect x="136.027" y="45.375" width="15.943" height="4.891"/>
</g>
<g>
	<path fill="#231F20" d="M49.975,106.016v25.416c0,2.505-1.27,3.758-3.809,3.758l-12.746-0.025c-7.617,0-11.426-3.894-11.426-11.68
		v-17.52c0-2.539,1.27-3.809,3.809-3.809s3.809,1.286,3.809,3.859v17.621c0,2.606,1.295,3.91,3.885,3.91h8.861v-21.531
		c0-2.573,1.295-3.859,3.885-3.859C48.73,102.156,49.975,103.442,49.975,106.016z"/>
	<path fill="#231F20" d="M54.221,131.381V95.783c0-2.522,1.27-3.783,3.809-3.783s3.809,1.295,3.809,3.885v6.348h8.938
		c7.617,0,11.426,3.894,11.426,11.68c0,5.823-1.389,9.521-4.164,11.096l2.184,2.615c0.981,0.847,1.447,2.184,1.396,4.012
		c-0.018,2.37-1.32,3.555-3.91,3.555c-1.744,0.034-2.988-0.575-3.732-1.828l-5.865-8.303c-2.472-0.051-3.732-1.354-3.783-3.91
		c0-2.472,1.235-3.707,3.707-3.707l2.691,0.025c2.539,0,3.825-1.235,3.859-3.707c0-2.606-1.287-3.91-3.859-3.91h-8.887v21.43
		c-0.085,2.606-1.371,3.927-3.859,3.961C55.473,135.24,54.221,133.954,54.221,131.381z"/>
	<path fill="#231F20" d="M114.428,131.482c0,2.505-1.27,3.758-3.809,3.758H97.873c-7.617,0-11.426-3.894-11.426-11.68v-17.52
		c0-2.539,1.27-3.809,3.809-3.809h20.16c2.656-0.017,3.986,1.244,3.986,3.783c-0.018,2.472-1.312,3.732-3.885,3.783l-16.453-0.025
		v5.078l11.4-0.051c2.572,0.034,3.859,1.346,3.859,3.936c0.016,2.472-1.244,3.707-3.783,3.707l-11.477,0.025v1.27
		c0,2.59,1.295,3.885,3.885,3.885l12.746,0.025C113.184,127.648,114.428,128.927,114.428,131.482z"/>
	<path d="M151.858,99.097c0.594,0.33,1.219,0.495,1.879,0.495c0.645,0,1.266-0.165,1.867-0.495c0.6-0.33,1.066-0.795,1.396-1.396
		c0.33-0.601,0.494-1.223,0.494-1.866c0-0.66-0.168-1.295-0.508-1.904c-0.338-0.609-0.809-1.075-1.408-1.396
		c-0.602-0.321-1.215-0.482-1.842-0.482c-0.643,0-1.266,0.161-1.865,0.482c-0.602,0.321-1.07,0.787-1.41,1.396
		c-0.338,0.609-0.508,1.244-0.508,1.904c0,0.644,0.17,1.266,0.508,1.866C150.802,98.302,151.267,98.767,151.858,99.097z"/>
	<path fill="#D8204E" d="M157.45,105.379c-0.024-0.244-0.066-0.472-0.119-0.688c-0.006-0.021-0.01-0.042-0.015-0.062
		c-0.053-0.2-0.12-0.386-0.198-0.562c-0.014-0.031-0.027-0.063-0.043-0.094c-0.077-0.161-0.167-0.311-0.267-0.45
		c-0.026-0.037-0.055-0.072-0.083-0.107c-0.101-0.127-0.209-0.244-0.329-0.352c-0.042-0.037-0.089-0.07-0.134-0.104
		c-0.12-0.095-0.245-0.186-0.383-0.262c-0.061-0.034-0.128-0.06-0.191-0.09c-0.139-0.066-0.278-0.132-0.434-0.183
		c-0.077-0.024-0.164-0.039-0.245-0.061c-0.159-0.041-0.316-0.086-0.491-0.112c-0.012-0.002-0.026-0.001-0.038-0.003
		c-0.244-0.035-0.5-0.059-0.773-0.064c-2.552,0.01-3.831,1.294-3.831,3.857v3.807v0.002v17.672v3.807
		c0,0.643,0.08,1.206,0.241,1.688c0.01,0.031,0.027,0.056,0.039,0.086c0.074,0.205,0.157,0.401,0.262,0.576
		c0.038,0.063,0.091,0.112,0.133,0.172c0.091,0.129,0.179,0.26,0.288,0.37c0.065,0.065,0.148,0.113,0.221,0.173
		c0.104,0.085,0.201,0.178,0.319,0.249c0.091,0.055,0.2,0.091,0.3,0.137c0.119,0.057,0.23,0.121,0.361,0.165
		c0.113,0.038,0.245,0.057,0.367,0.086c0.137,0.033,0.266,0.074,0.414,0.096c0.129,0.019,0.275,0.019,0.413,0.029
		c0.16,0.012,0.313,0.032,0.485,0.032c2.284-0.057,3.521-1.126,3.73-3.19c0.021-0.215,0.043-0.431,0.043-0.668v-25.287
		C157.493,105.807,157.471,105.594,157.45,105.379z"/>
	<path fill="#D8204E" d="M145.931,98.478c-1.438-4.282-5.021-6.424-10.752-6.424h-12.746c-2.506,0-3.758,1.295-3.758,3.885v2.539
		v7.666v12.25v2.333v3.118v2.187v0.146v5.305c0,2.522,1.27,3.783,3.809,3.783s3.809-1.295,3.809-3.885v-5.305v-0.045v-2.288v-3.017
		v-2.333v-0.998h8.938c7.474,0,11.271-3.758,11.412-11.252h0.014v-0.428v-2.211C146.655,101.588,146.413,99.913,145.931,98.478z
		 M135.179,109.778h-8.887v-3.635v-6.422h8.887c2.573,0,3.859,1.228,3.859,3.682v2.465
		C139.038,108.475,137.752,109.778,135.179,109.778z"/>
	<path d="M14.041,102.182l-3.732,0.051c-2.658-0.017-3.986,1.244-3.986,3.783c0.017,2.472,1.32,3.724,3.91,3.758v24.07
		c0,2.59-1.295,3.885-3.885,3.885l-2.59,0.025c-2.505,0-3.758,1.27-3.758,3.809c0,2.522,1.27,3.783,3.809,3.783h2.615
		c7.617,0,11.426-3.885,11.426-11.654V105.99C17.85,103.451,16.58,102.182,14.041,102.182z"/>
	<path fill="#D8204E" d="M12.022,99.097c0.601,0.33,1.223,0.495,1.866,0.495c0.66,0,1.291-0.165,1.892-0.495
		c0.601-0.33,1.066-0.795,1.396-1.396c0.33-0.601,0.495-1.223,0.495-1.866c0-0.66-0.169-1.295-0.508-1.904
		c-0.339-0.609-0.809-1.075-1.409-1.396c-0.601-0.321-1.223-0.482-1.866-0.482c-0.626,0-1.24,0.161-1.841,0.482
		c-0.601,0.322-1.071,0.787-1.409,1.396c-0.339,0.609-0.508,1.244-0.508,1.904c0,0.644,0.165,1.266,0.495,1.866
		C10.956,98.301,11.421,98.767,12.022,99.097z"/>
</g>
<g id="g1">
	<polygon id="polygon1" fill="#FFFFFF" points="10.907,64 5.303,68.847 0,68.847 0,75.083 5.223,75.083 10.907,80 	"/>
	<path id="path1" fill="#FFFFFF" d="M13.761,75.518c0.63-1.011,1-2.201,1-3.479c0-1.3-0.38-2.507-1.028-3.528"/>
	<path id="path2" fill="#FFFFFF" d="M16.033,66.211c1.207,1.628,1.922,3.645,1.922,5.828c0,2.163-0.703,4.161-1.891,5.781"/>
</g>
</svg>
